<svg width="32" height="32" viewBox="0 0 32 32" fill="none" xmlns="http://www.w3.org/2000/svg">
<rect width="32" height="32" rx="16" fill="#321D47"/>
<path fill-rule="evenodd" clip-rule="evenodd" d="M15.9999 1.66651C12.5952 1.66476 9.30109 2.87502 6.70737 5.08059C4.11365 7.28616 2.38974 10.343 1.84432 13.7037C1.29891 17.0644 1.96761 20.5096 3.73069 23.4222C5.49377 26.3348 8.23608 28.5248 11.4666 29.5998C12.1866 29.7332 12.4466 29.2932 12.4466 28.9332C12.4466 28.5732 12.4466 27.6932 12.4466 26.4998C8.44658 27.3665 7.61991 24.5798 7.61991 24.5798C7.35533 23.6981 6.77968 22.9424 5.99991 22.4532C4.69991 21.5665 6.09991 21.5798 6.09991 21.5798C6.55401 21.6434 6.98762 21.8097 7.36771 22.0662C7.7478 22.3227 8.06435 22.6625 8.29324 23.0598C9.57324 25.2532 11.6266 24.6198 12.4666 24.2532C12.5329 23.5249 12.8567 22.8441 13.3799 22.3332C10.1932 21.9732 6.84658 20.7465 6.84658 15.2532C6.82545 13.8281 7.3557 12.4499 8.32658 11.4065C7.88548 10.1708 7.9356 8.81297 8.46658 7.61317C8.46658 7.61317 9.66658 7.22651 12.4066 9.07984C14.7549 8.43983 17.2316 8.43983 19.5799 9.07984C22.3199 7.22651 23.5199 7.61317 23.5199 7.61317C24.0469 8.8139 24.0969 10.1702 23.6599 11.4065C24.629 12.4506 25.1569 13.8289 25.1332 15.2532C25.1332 20.7598 21.7999 21.9665 18.5932 22.3265C18.9373 22.6751 19.2023 23.0937 19.3703 23.5539C19.5382 24.014 19.6052 24.5049 19.5666 24.9932C19.5666 26.9065 19.5666 28.4532 19.5666 28.9265C19.5666 29.3998 19.8266 29.7532 20.5532 29.5932C23.7804 28.5139 26.5184 26.3217 28.2773 23.4087C30.0363 20.4956 30.7014 17.0518 30.1538 13.6933C29.6062 10.3348 27.8816 7.28061 25.2884 5.07717C22.6953 2.87373 19.4028 1.66475 15.9999 1.66651Z" stroke="white" stroke-linecap="round" stroke-linejoin="round"/>
</svg>
