<svg width="29" height="19" viewBox="0 0 29 19" fill="none" xmlns="http://www.w3.org/2000/svg">
<path d="M7.848 4C8.84533 4 9.70933 4.17067 10.44 4.512C11.1707 4.85333 11.7307 5.336 12.12 5.96C12.5093 6.584 12.704 7.30933 12.704 8.136C12.704 8.96267 12.5093 9.688 12.12 10.312C11.7307 10.936 11.1707 11.4187 10.44 11.76C9.70933 12.1013 8.84533 12.272 7.848 12.272H4.432V16H1.112V4H7.848ZM7.656 9.616C8.18933 9.616 8.60533 9.48533 8.904 9.224C9.20267 8.96267 9.352 8.6 9.352 8.136C9.352 7.672 9.20267 7.30933 8.904 7.048C8.60533 6.78667 8.18933 6.656 7.656 6.656H4.432V9.616H7.656Z" fill="#E6007A"/>
<path d="M27.368 11.208H20.648L20.312 13.312H27.912V16H16.752L17.664 10L16.752 4H27.832V6.688H20.312L20.648 8.792H27.368V11.208Z" fill="#1A1A1A"/>
</svg>
